/* XPM */
static char *_7d14c0382b5478d802c71d70d8f1610LVJEmlv4mDY2uChl[] = {
/* columns rows colors chars-per-pixel */
"100 100 84 1 ",
"  c #00062F",
". c #04092F",
"X c #020635",
"o c #040835",
"O c #03063B",
"+ c #080738",
"@ c #050839",
"# c #040642",
"$ c #060944",
"% c #0A0C44",
"& c #050649",
"* c #0B0B4B",
"= c #0E104B",
"- c #010053",
"; c #0B0C53",
": c #0A055F",
"> c #0F0F5B",
", c #0F1054",
"< c #111154",
"1 c #161953",
"2 c #13135B",
"3 c #17185F",
"4 c #1A1C5B",
"5 c #1F1F5F",
"6 c #1E205C",
"7 c #202058",
"8 c #120F60",
"9 c #110C67",
"0 c #131262",
"q c #1B1C60",
"w c #1C1A65",
"e c #1B1B68",
"r c #201F6E",
"t c #222163",
"y c #242663",
"u c #252464",
"i c #252862",
"p c #25256C",
"a c #24246E",
"s c #2D2F6F",
"d c #2E3265",
"f c #32346F",
"g c #272672",
"h c #262277",
"j c #252475",
"k c #2A2A72",
"l c #2A2A77",
"z c #2C2B75",
"x c #252379",
"c c #29257C",
"v c #292878",
"b c #2C2B7C",
"n c #313371",
"m c #333474",
"M c #2A2782",
"N c #292587",
"B c #2D2B81",
"V c #2B2886",
"C c #2E2B87",
"Z c #26208F",
"A c #2A2688",
"S c #363585",
"D c #3D3E86",
"F c #363489",
"G c #2A2494",
"H c #353292",
"J c #3A3893",
"K c #3F4086",
"L c #4A4997",
"P c #484798",
"I c #4C469B",
"U c #53549A",
"Y c #5F619E",
"T c #4C43A2",
"R c #524EAD",
"E c #595AA3",
"W c #5B5BA4",
"Q c #5450AF",
"! c #5A54AA",
"~ c #5C5BA9",
"^ c #514CB5",
"/ c #5450B6",
"( c #5F56B8",
") c #6D67C7",
/* pixels */
"oooooooooooooooooooooooooooooooooo.oX@X@@o@@oooooooooooooooooooooooo@ttooooooooooooooooooooooooooo0F",
"ooooooooooooooooooooooooooooooooooo#gx#XooooooooooooooooooooooooooooX#OXoooooooooooooooooooooooooo#s",
"ooooooooooooooooooooooooooooooooooX$vV$XoO@ooooooooooooooooooooooooooooooooooooooooooooooooooooooooo",
"oooooooooooooooooooooooooooooooooo @*;OoO~E@oooooooooooooooooooooooooooooooooooooooooooooooooooooooo",
"oooooooooooooooooooooooooooooooooooooooo@*#OooooooooooooooooooooooooooXXaa@ oooooooooooooooooooooooo",
"oooooooooooooooooooooooo@ooooooooooooo@oXXooooooooooooooooooooooooooooXX*3*@oooooooooooooooooooooooo",
"oooooooooooooooooooooooXn@ooooooooooooo@oooooooooooooooooooooooooooooXXo@@i%oooooooooooooooooooooooo",
"@oooooooooooooooooooooo@m@oooooooooooooooooooooooooooooooooooooooooooXXo@o@@oooooooooooooooooooooooo",
"=Xooooooooooooooooooooo@O@oooooooooooooooooooooooooooooooooooooooooooooooooooooooooooooooooooooooooO",
"=@oooooooooooooooooooooooooooooooooooooooooooooooooooooooooooooooooooooooo@O*OoXXoooooooooooooooooX$",
"OXoooooooooooooooooooooo.oooooooooooooooooooooooooooooooooooooooooooooooooOz-h%XXooooooooooooooooo @",
"oooooooooooooooooooooooooooooooooooooooooooooooooooooooooooooooooooooooo@o*:)9wO4*oooooooooooooooooo",
"oooooooooooooooooooooooooooooooooooooooooooooooooooooooooooooooooooooooooo$rh8*4ka@ooooooooooooooooo",
"oooooooooooooooooooooooooooooooooooooooooooooooooooooooooooooooooooooooooo@%5<O#u$@ooooooooooooooooo",
"ooooooooooooooooooooooooooooooooooooooooooooooooooooooooooooooooooooooooooooo@oO@ooooooooooooooooooo",
"@ooooooXoooooooooooooooooooooooooooooooooooooooooooooooooooooooooooooooooooooooooooooooooooooooooooo",
"uOooo@@ooooooooooooooooooooooooooooooooooooooooooooooooooooooooooooooooooooooooooooooooooooooooooooo",
"uOooXy6@oooooooooooooooooooooooooooooooooooooooooooooooooooooooooooooooooooooooooooooooooooooooooooo",
"ooooo&&@oooooooooooooooooooooooooooooooooooooooooooooooooooooooooooooooooooooooooooooooooooooooooooo",
"oooooooooooooooooooooooooooooooooooooooooooooooooooooo.X@oXooooooooooooooooooooooooooooooooooooooooo",
"ooooooooooooooooooooooooooooooooooooooooooooooooooooooo#;Ooooooooooooooooooooooooooooooooooooooooooo",
"oooooooooooooooooooooooooooooooooooooooooooooooooooXXXOjNjOooooooooooooooooooooooooooooooooooooooooo",
"oooooooooooooooooooooooooooooooooooooooooooooooooooXXo#MZC#ooooooooooooooooooooooooooooooooooooooooo",
"ooooooooooooooooooooooooooooooooooooooooooooooooooooooOwc2@ooooooooooooooooooooooooooooooooooooooooo",
"oooooooooooooooooooooooooooooooooooooooooooooooooooooo@OXoooooooooooooX@oooooooooooooooooooooooooooo",
"oooooooooooooooooooooooooooooooooooooooooooooooooooooo@@oo@ooooooooooo@%oooooooooooooooooooooooooooo",
"oooooooooooooooooooooooooooooooooooooooooooooooooooooooooo@ooooooooooo@@XXoooooooooooooooooooooooooo",
"ooooooooooooooooooooooooooooooooooooooooooooooooooooooooooooooooooooooXXXX@ooooooooooooooooooooooooo",
"ooooooooooooooooooooooooooooooooooooooooooooooooooooooooooooooooooooooXXoooooooooooooooooooooooooooo",
"oooooooooooooooooooooooooooooooooooooooooooooooooooooooooooooooooooooo@Xoooooooooooooooooooooooooooo",
"ooooooooooooooooooooooooooooooooooooooooooooooooooooooooooooooooooooooOO@X@@oooooooooooooooooooooooo",
"ooooooooooooooooooooooooooooooooooooooooooooooooooooooooooooooooooooo#!(XXoooooooooooooooooooooooooo",
"ooooooooooooooooooooooooooooooooooooooooooooooooooooooooooooooooooooo$ITOooooooooooooooooooooooooooo",
"ooooooooooooooooooooooooooooooooooooooooooooooooooooooooooooooooooooooo+XX@@oooooooooooooooooooooooo",
"oooooooooooooooooooooooooooooooooooooooooooooooooooooooooooooooooooooooooooooooooooooooooooooooooooo",
"oooooooooooooooooooooooooooooooooooooooooooooooooooooooooooooooooooooooooooooooooooooooooooooooooooo",
"oooooooooooooooooooooooooooooooooooooooooooooooooooooooooooooooooooooooooooooooooooooooooooooooooooo",
"oooooooooooooooooooooooooooooooooooooooooooooooooooooooooooooooooooooooooooooooooooooooooooooooooooo",
"ooooooooooooooooooooooooooooooooooooooooooooooooooooooooooooX@O@ooooooooooooooo@%Ooooooooooooooooooo",
"ooooooooooooooooooooooooooooooooooooooooooooooooooooooooooooX@f$oooooooooooooooOY%@ooooooooooooooooo",
"oooooooooooooooooooooooooooooooooooooooooooooooooooooooooooooo@XoooooooooooooooXO@oooooooooooooooooo",
"ooooooooooooooooooooooooooooooooooooooooooooooooooooooooooooooXooooooooooooooooXXooooooooooooooooooo",
"oooooooooooooooooooooooooooooooooooooooooooooooooooooooooooooooooooooooooooooooooooooooooooooooooooo",
"oooooooooooooooooooooooooooooooooooooooooooooooooooooooooooooooooooooooooooooooooooooooooooooooooooo",
"oooooooooooooooooooooooooooooooooooooooooooooooooooooooooooooooooooooooooooooooooooooooooooooooooooo",
"oooooooooooooooooooooooooooooooooooooooooooooooooooooooooooooooooooooooooooooooooooooooooooooooooooo",
"oooooooooooooooooooooooooooooooooooooooooooooooooooooooooooooooo@oo.oooooooooooooooooooooooooooooooo",
"oooooooooooooooooooooooooooooooooooooooooooooooooooooooooooooooo@@oooooooooooooooooooooooooooooooooo",
"ooooooooooooooooooooooooooooooooooooooooooooooooooooooooooooooooooO#oooooooooooooooooooooooooooooooo",
"ooooooooooooooooooooooooooooooooooooooooooooooooooooooooooooooooo#gJ&XoOoooooooooooooooooooooooooooo",
"ooooooooooooooooooooooooooooooooooooooooooooooooooooooooooooooooo#SH,ooooooooooooooooooooooooooooooo",
"ooooooooooooooooooooooooooooooooooooooooooooooooooooooooooooooooo@&>OXoooooooooooooooooooooooooooooo",
"oooooooooooooooooooooooooooooooooooooooooooooooooooooooooooooooooo@Xoo@ooooooooooooooooooooooooooooo",
"oooooooooooooooooooooooooooooooooooooooooooooooooooooooooooooooooooooooooooooooooooooooooooooooooooo",
"oooooooooooooooooooooooooooooooooooooooooooooooooooooooooooooooooooooooooooooooooooooooooooooooooooo",
"oooooooooooooooooooooooooooooooooooooooooooooooooooooooooooooooooooooooooooooooooooooooooooooooooooo",
"oooooooooooooooooooooooooooooooooooooooooooooooooooooooooooooooooooooooooooooooooooooooooooooooooooo",
"oooooooooooooooooooooooooooooooooooooooooooooooooooooooooooooooooooooooooooooooooooooooooooooooooooo",
"oooooooooo@o@7%ooooooooooooooooooooooooooooooooooooooooooooooooooooooooooooooooooooooooooooooooooooo",
"oooooooooX@X@@@ooooooooooooooooooooooooooooooooooooooooooooooooooooooooooooooooooooooooooooooooooooo",
"ooooooooo@1d@ooooooooooooooooooooooooooooooooooooooooooooooooooooooooooooooooooooooooooooooooooooooo",
"oooooooooXO@Xooooooooooooooooooooooooooooooooooooooooooooooooooooooooooooooooooooooooooooooooooooooo",
"ooooX@Xoooo@@ooooooooooooooooooooooooooooooooooooooooooooooooooooooooooooooooooooooooooooooooooooooo",
"oooo@&$Xooo@@ooooooooooooooooooooooooooooooooooooooooooooooooooooooooooooooooooooooooooooooooooooooo",
"ooXX*cb$@ooooooooooooooooooooooooooooooooooooooooooooooooooooooooooooooooooooooooooooooooooooooooooo",
"ooXX$ak#@ooooooooooooooooooooooooooooooooooooooooooooooooooooooooooooooooooooooooooooooooooooooooooo",
"ooooX@O@@ooooooooooooooooooooooooooooooooooooooooooooooooooooooooooooooooooooooooooooooooooooooooooo",
"oooo.oX@@ooooooooooooooooooooooooooooooooooooooooooooooooooooooooooooooooooooooooooooooooooooooooooo",
"oooooooooooooooooooooooooooooooooooooooooooooooooooooooooooooooooooooooooooooooooooooooooooooooooooo",
"oooooooooooooooooooooooooooooooooooooooooooooooooooooooooooooooooooooooooooooooooooooooooooooooooooo",
"oooooooooooooooooooooooooooooooooooooooooooooooooooooooooooooooooooooooooooooooooooooooooooooooooooo",
"oooooooooooooooooooooooooooooooooooooooooooooooooooooooooooooooooooooooooooooooooooooooooooooooooooo",
"oooooooooooooooooooooooooooooooooooooooooooooooooooooooooooooooooooooooooooooooooooooooooooooooooooo",
"oooooooooooooooooooooooooooooooooooooooooooooooooooooooooooooooooooooooooooooooooooooooooooooooooooo",
"oooooooooooooooooooooooooooooooooooooooooooooooooooooooooooooooooooooooooooooooooooooooooooooooooooo",
"oooooooooooooooooooooooooooooooooooooooooooooooooooooooooooooooooooooooooooooooooooooooooooooooooooo",
"oooooooooooooooooooooooooooooooooooooooooooooooooooooooooooooooooooooooooooooooooooooooooooooooooooo",
"oooooooooooooooooooooooooooooooooooooooooooooooooooooooooooooooooooooooooooooooooooooooooooooooooooo",
"oooooooooooooooooooooooooooooooooooooooooooooooooooooooooooooooooooooooooooooooooooooooooooooooooooo",
"oooooooooooooooooooooooooooooooooooooooooooooooooooooooooooooooooooooooooooooooooooooooooooooooooooo",
"oooooooooooooooooooooooooooooooooooooooooooooooooooooooooooooooooooooooooooooooooooooooooooooooooooo",
"oooooooooooooooooooooooooooooooooooooooooooooooooooooooooooooooooooooooooooooooooooooooooooooooooooo",
"oooooooooooooooooooooooooooooooooooooooooooooooooooooooooooooooooooooooooooooooooooooooooooooooooooo",
"oooooooooooooooooooooooooooooooooooooooooooooooooooooooooooooooooooooooooooooooooooooooooooooooooooo",
"oooooooooooooooooooooooooooooooooooooooooooooooooooooooooooooooooooooooooooooooooooooooooooooooooooo",
"oooooooooooooooooooooooooooooooooooooooooooooooooooooooooooooooooooooooooooooooooooooooooooooooooooo",
"oooooooooooooooooooooooooooooooooooooooooooooooooooooooooooooooooooooooooooooooooooooooooooooooooooo",
"oooooooooooooooooooooooooooooooooooooooooooooooooooooooooooooooooooooooooooooooooooooooooooooooooooo",
"ooooooooooooooooooooooooooooooooooooooooooooooooooooooooooooooooooooooooooooooooooooooo@oooooooooooo",
"ooooooooooooooooooooooooooooooooooooooooooooooooooooooooooooooooooooooooooooooooooooooo@O<LW4Xoooooo",
"oooooooooooooooooooooooooooooooooooooooooooooooooooo@Xooooooooooooooooooooooooooooooooo@KR^RD@oooooo",
"ooooooooooooooooooooooooooooooooooooooooooooooooooo#a1XooooooooooooooooooooooooooooooooXUQ/PO@oooooo",
"ooooooooooooooooooooooooooooooooooooooooooooooooooo#lq@ooooooooooooooooooooooooooooooooo%UDOXooooooo",
"oooooooooooooooooooooooooooooooooooooooooooooooooooXO@oooooooooooooooooooooooooooooooooo@@@ooooooooo",
"ooooooooooooooooooooooooooooooooooXO@X@ooooooooooooooooooooooooooooooooooooooooooooooooooooooooooooo",
"ooooooooooooooooooooooooooooooooooOrBe@Xoooooooooooooooooooooooooooooooooooooooooooooooooooooooooooo",
"oooooooooooooooooooooooooooooooooo$AGA@ooooooooooooooooooooooooooooooooooooooooooooooooooooooooooooo",
"ooooooooooooooooooooooooooooooooooXMNaXXoooooooooooooooooooooooooooooooooooooooooooooooooooooooooooo",
"ooooooooooooooooooooooooooooooooooO$*Ooooooooooooooooooooooooooooooooooooooooooooooooooooooooooooooo",
"oooooooooooooooooooooooooooooooooooXX@oooooooooooooooooooooooooooooooooooooooooooooooooooooooooooooo"
};
